# xmcd
#
# Track frame offsets:
#	150
#	15778
#	34461
#	49421
#	65245
#	75095
#	89713
#	105472
#	122067
#	142289
#	156986
#	170242
#	184884
#	196850
#	211012
#	225096
#	237173
#	252014
#
# Disc length: 3654 seconds
#
# Revision: 2
# Processed by: cddbd v1.5PL3 Copyright (c) Steve Scherf et al.
# Submitted via: EasyCDDAExtractor 6.2.0.3
#
DISCID=f20e4412
DTITLE=張德蘭 - 經典紀念金曲-A
DYEAR=1900
DGENRE=
TTITLE0=情義兩心堅
TTITLE1=默默無言
TTITLE2=網中人
TTITLE3=相識也是?份
TTITLE4=雞公仔
TTITLE5=春天新希望
TTITLE6=風塵淚\
TTITLE7=情若無花不?果
TTITLE8=紫水晶
TTITLE9=人生于世
TTITLE10=雙以結伴去
TTITLE11=茫茫路
TTITLE12=武俠帝女花
TTITLE13=臺上臺下
TTITLE14=可知道
TTITLE15=堤岸情歌
TTITLE16=留住今日情
TTITLE17=神雕大俠
EXTD=
EXTT0=
EXTT1=
EXTT2=
EXTT3=
EXTT4=
EXTT5=
EXTT6=
EXTT7=
EXTT8=
EXTT9=
EXTT10=
EXTT11=
EXTT12=
EXTT13=
EXTT14=
EXTT15=
EXTT16=
EXTT17=
PLAYORDER=
